<?xml version="1.0" standalone="no"?>
<!DOCTYPE svg PUBLIC "-//W3C//DTD SVG 20010904//EN"
 "http://www.w3.org/TR/2001/REC-SVG-20010904/DTD/svg10.dtd">
<svg version="1.0" xmlns="http://www.w3.org/2000/svg"
 width="770.000000pt" height="297.000000pt" viewBox="0 0 770.000000 297.000000"
 preserveAspectRatio="xMidYMid meet">

<g transform="translate(0.000000,297.000000) scale(0.100000,-0.100000)"
fill="#000000" stroke="none">
<path d="M1290 2954 c-14 -2 -59 -9 -100 -15 -168 -25 -380 -107 -531 -204
-320 -206 -532 -522 -621 -922 -30 -135 -33 -500 -5 -638 92 -451 358 -815
739 -1010 199 -102 384 -151 618 -162 415 -19 814 138 1132 448 92 89 110 128
111 229 0 62 -4 84 -26 126 -50 98 -152 152 -264 141 -81 -8 -132 -39 -224
-133 -137 -140 -245 -207 -411 -254 -93 -27 -293 -37 -398 -21 -342 53 -602
292 -705 646 -37 130 -51 282 -36 406 32 260 125 455 294 615 115 110 266 184
433 214 103 18 328 8 419 -19 156 -47 305 -139 401 -249 136 -155 379 -129
468 50 21 41 26 66 26 124 0 40 -4 84 -10 99 -15 39 -204 223 -292 283 -95 65
-248 142 -352 176 -154 51 -257 67 -456 71 -102 2 -196 2 -210 -1z"/>
<path d="M6380 2945 c-381 -62 -648 -277 -746 -600 -25 -82 -28 -105 -28 -255
-1 -144 2 -175 22 -245 46 -160 150 -306 282 -395 148 -100 292 -154 615 -229
292 -67 357 -86 442 -127 129 -61 180 -147 171 -283 -16 -214 -215 -331 -548
-318 -301 11 -469 117 -570 359 -36 87 -85 144 -151 176 -139 67 -295 15 -367
-122 -22 -43 -27 -63 -26 -131 0 -144 81 -304 228 -450 202 -201 483 -307 856
-322 424 -17 763 106 959 349 146 180 210 449 167 698 -60 345 -303 510 -972
660 -288 65 -390 106 -474 189 -121 121 -121 331 -1 451 81 81 193 121 336
122 172 1 327 -97 449 -282 76 -115 171 -182 281 -195 143 -18 249 68 274 224
9 55 8 72 -10 125 -27 80 -88 193 -144 266 -118 154 -299 264 -528 321 -108
27 -391 35 -517 14z"/>
<path d="M3727 2934 c-270 -49 -578 -235 -656 -397 -78 -161 -39 -294 97 -333
109 -32 221 1 329 96 81 73 170 125 258 153 57 18 93 22 195 22 148 -1 204
-18 303 -93 127 -97 200 -256 200 -437 0 -168 -53 -288 -187 -419 -45 -44
-337 -305 -651 -580 -550 -484 -571 -503 -603 -568 -69 -135 -37 -276 71 -317
16 -6 61 -11 100 -11 131 0 123 -6 818 614 343 305 640 575 660 598 113 135
203 304 239 448 28 109 37 308 20 421 -34 237 -159 472 -324 611 -75 63 -188
125 -286 158 -148 48 -417 64 -583 34z"/>
<path d="M4535 536 c-107 -49 -160 -134 -160 -256 1 -117 50 -195 159 -252 51
-27 171 -30 227 -6 50 22 116 83 142 132 33 62 31 193 -3 260 -65 128 -233
184 -365 122z"/>
</g>
</svg>
